{"accessors":[{"bufferView":0,"byteOffset":0,"componentType":5126,"count":4,"max":[0.05000000000000001,0.04330127018922194,0.025],"min":[-0.024999999999999996,0.0,-9.61481343191782e-18],"type":"VEC3"},{"bufferView":0,"byteOffset":48,"componentType":5126,"count":4,"max":[-0.024999999999999996,0.04330127018922194,0.025000000000000013],"min":[-0.025000000000000023,-0.04330127018922192,-9.61481343191782e-18],"type":"VEC3"},{"bufferView":0,"byteOffset":96,"componentType":5126,"count":4,"max":[0.05000000000000001,5.551115123125783e-18,0.025000000000000013],"min":[-0.025000000000000023,-0.04330127018922192,0.0],"type":"VEC3"},{"bufferView":0,"byteOffset":144,"componentType":5126,"count":3,"max":[0.05000000000000001,0.04330127018922193,9.614813431917817e-18],"min":[-0.025000000000000023,-0.04330127018922192,-9.61481343191782e-18],"type":"VEC3"},{"bufferView":0,"byteOffset":180,"componentType":5126,"count":3,"max":[0.05000000000000001,0.04330127018922194,0.025000000000000013],"min":[-0.025000000000000023,-0.04330127018922191,0.02499999999999999],"type":"VEC3"},{"bufferView":0,"byteOffset":216,"componentType":5126,"count":108,"max":[0.025,0.01000000000000001,-0.040010979087280146],"min":[-0.02495609329410805,-7.105427357601002e-18,-0.08998902091271986],"type":"VEC3"},{"bufferView":0,"byteOffset":1512,"componentType":5126,"count":53,"max":[0.025,3.552713678800501e-18,-0.040010979087280146],"min":[-0.024956093294108047,-7.105427357601002e-18,-0.08998902091271986],"type":"VEC3"},{"bufferView":0,"byteOffset":2148,"componentType":5126,"count":53,"max":[0.025000000000000006,0.010000000000000014,-0.04001097908728015],"min":[-0.024956093294108047,0.01,-0.08998902091271986],"type":"VEC3"},{"bufferView":1,"byteOffset":0,"componentType":5126,"count":4,"type":"VEC3"},{"bufferView":1,"byteOffset":48,"componentType":5126,"count":4,"type":"VEC3"},{"bufferView":1,"byteOffset":96,"componentType":5126,"count":4,"type":"VEC3"},{"bufferView":1,"byteOffset":144,"componentType":5126,"count":3,"type":"VEC3"},{"bufferView":1,"byteOffset":180,"componentType":5126,"count":3,"type":"VEC3"},{"bufferView":1,"byteOffset":216,"componentType":5126,"count":108,"type":"VEC3"},{"bufferView":1,"byteOffset":1512,"componentType":5126,"count":53,"type":"VEC3"},{"bufferView":1,"byteOffset":2148,"componentType":5126,"count":53,"type":"VEC3"},{"bufferView":2,"byteOffset":0,"componentType":5123,"count":6,"type":"SCALAR"},{"bufferView":2,"byteOffset":12,"componentType":5123,"count":6,"type":"SCALAR"},{"bufferView":2,"byteOffset":24,"componentType":5123,"count":6,"type":"SCALAR"},{"bufferView":2,"byteOffset":36,"componentType":5123,"count":3,"type":"SCALAR"},{"bufferView":2,"byteOffset":44,"componentType":5123,"count":3,"type":"SCALAR"},{"bufferView":2,"byteOffset":52,"componentType":5123,"count":318,"type":"SCALAR"},{"bufferView":2,"byteOffset":688,"componentType":5123,"count":153,"type":"SCALAR"},{"bufferView":2,"byteOffset":996,"componentType":5123,"count":153,"type":"SCALAR"}],"asset":{"generator":"Open CASCADE Technology 7.8 [dev.opencascade.org]","version":"2.0"},"bufferViews":[{"buffer":0,"byteLength":2784,"byteOffset":0,"byteStride":12,"target":34962},{"buffer":0,"byteLength":2784,"byteOffset":2784,"byteStride":12,"target":34962},{"buffer":0,"byteLength":1304,"byteOffset":5568,"target":34963}],"buffers":[{"byteLength":6872,"uri":"blender - 1 assembly 2-Assembly.bin"}],"materials":[{"name":"mat_0","pbrMetallicRoughness":{"baseColorFactor":[0.6038273572921753,0.6038273572921753,0.791297972202301,1.0]},"doubleSided":true}],"meshes":[{"name":"triangle","primitives":[{"attributes":{"NORMAL":8,"POSITION":0},"indices":16,"material":0,"mode":4},{"attributes":{"NORMAL":9,"POSITION":1},"indices":17,"material":0,"mode":4},{"attributes":{"NORMAL":10,"POSITION":2},"indices":18,"material":0,"mode":4},{"attributes":{"NORMAL":11,"POSITION":3},"indices":19,"material":0,"mode":4},{"attributes":{"NORMAL":12,"POSITION":4},"indices":20,"material":0,"mode":4}]},{"name":"circle","primitives":[{"attributes":{"NORMAL":13,"POSITION":5},"indices":21,"material":0,"mode":4},{"attributes":{"NORMAL":14,"POSITION":6},"indices":22,"material":0,"mode":4},{"attributes":{"NORMAL":15,"POSITION":7},"indices":23,"material":0,"mode":4}]}],"nodes":[{"children":[1,2],"name":"Assembly"},{"mesh":0,"name":"triangle"},{"rotation":[0.2588190451025207,0.9659258262890683,-1.663852078115538e-16,1.28865905512727e-17],"translation":[0.0125,0.021650635094610954,-0.052500000000000008],"mesh":1,"name":"circle"}],"scene":0,"scenes":[{"nodes":[0]}]}